<svg xmlns="http://www.w3.org/2000/svg" version="1.1" xmlns:xlink="http://www.w3.org/1999/xlink" xmlns:svgjs="http://svgjs.dev/svgjs" width="2000" height="1500" viewBox="0 0 2000 1500"><rect width="2000" height="1500" fill="#90adbb"></rect><g transform="matrix(0.75,0,0,0.75,249.090909090909,282.7536437246963)"><svg viewBox="0 0 396 247" data-background-color="#90adbb" preserveAspectRatio="xMidYMid meet" height="1247" width="2000" xmlns="http://www.w3.org/2000/svg" xmlns:xlink="http://www.w3.org/1999/xlink"><g id="tight-bounds" transform="matrix(1,0,0,1,0.2400000000000091,-0.09999999999999432)"><svg viewBox="0 0 395.52 247.2" height="247.2" width="395.52"><g><svg></svg></g><g><svg viewBox="0 0 395.52 247.2" height="247.2" width="395.52"><g transform="matrix(1,0,0,1,75.54432,91.13646)"><svg viewBox="0 0 244.43135999999998 64.92707999999999" height="64.92707999999999" width="244.43135999999998"><g><svg viewBox="0 0 244.43135999999998 64.92707999999999" height="64.92707999999999" width="244.43135999999998"><g><svg viewBox="0 0 244.43135999999998 64.92707999999999" height="64.92707999999999" width="244.43135999999998"><g><svg viewBox="0 0 244.43135999999998 64.92707999999999" height="64.92707999999999" width="244.43135999999998"><g id="textblocktransform"><svg viewBox="0 0 244.43135999999998 64.92707999999999" height="64.92707999999999" width="244.43135999999998" id="textblock"><g><svg viewBox="0 0 244.43135999999998 64.92707999999999" height="64.92707999999999" width="244.43135999999998"><g transform="matrix(1,0,0,1,0,0)"><svg width="244.43135999999998" viewBox="3.049999952316284 -33.5 127.989990234375 34" height="64.92707999999999" data-palette-color="#f6f6f6"><path d="M3.05-33L18.2-33Q25.95-33 30-28.7 34.05-24.4 34.05-16.5L34.05-16.5Q34.05-8.65 30-4.33 25.95 0 18.2 0L18.2 0 3.05 0 3.05-33ZM13.25-7.45L16.95-7.45Q20.65-7.45 22.1-9.68 23.55-11.9 23.55-16.5L23.55-16.5Q23.55-21.1 22.1-23.33 20.65-25.55 16.95-25.55L16.95-25.55 13.25-25.55 13.25-7.45ZM57.5 0L38.9 0 38.9-33 56.45-33Q62.65-32.95 65.62-30.73 68.6-28.5 68.6-24.15L68.6-24.15Q68.6-21.3 66.87-19.25 65.15-17.2 61.5-16.65L61.5-16.65 61.5-16.6Q65.55-16.1 67.5-14 69.45-11.9 69.45-8.8L69.45-8.8Q69.45-4.5 66.47-2.25 63.5 0 57.5 0L57.5 0ZM48.7-12.85L48.7-6.9 55.15-6.9Q57.1-6.9 58.05-7.68 59-8.45 59-9.9L59-9.9Q59-11.35 58.05-12.1 57.1-12.85 55.15-12.85L55.15-12.85 48.7-12.85ZM48.7-25.8L48.7-19.9 54.4-19.9Q58.15-19.9 58.15-22.85L58.15-22.85Q58.15-25.8 54.4-25.8L54.4-25.8 48.7-25.8ZM85.1-33.5L85.1-33.5Q89.8-33.5 92.95-31.65 96.1-29.8 97.7-26.08 99.3-22.35 99.3-16.65L99.3-16.65Q99.3-10.5 97.42-6.73 95.55-2.95 92.32-1.23 89.1 0.5 85.1 0.5L85.1 0.5Q80.75 0.5 77.5-1.18 74.25-2.85 72.6-6.6L72.6-6.6 81.65-10Q81.95-8.55 82.82-7.78 83.7-7 85.25-7L85.25-7Q86.45-7 87.37-7.48 88.3-7.95 88.95-8.88 89.6-9.8 89.92-11.2 90.25-12.6 90.25-14.45L90.25-14.45Q90.25-14.7 90.25-14.9 90.25-15.1 90.25-15.4L90.25-15.4 90.05-15.4Q89.55-14.2 88.4-13.38 87.25-12.55 85.75-12.13 84.25-11.7 82.6-11.7L82.6-11.7Q79.55-11.7 77.17-12.98 74.8-14.25 73.42-16.57 72.05-18.9 72.05-22L72.05-22Q72.05-25.6 73.7-28.15 75.35-30.7 78.3-32.1 81.25-33.5 85.1-33.5ZM85.1-25.9L85.1-25.9Q83.4-25.9 82.35-24.95 81.3-24 81.3-22.25L81.3-22.25Q81.3-20.6 82.37-19.7 83.45-18.8 85.1-18.8L85.1-18.8Q86.2-18.8 87.05-19.23 87.9-19.65 88.42-20.45 88.95-21.25 88.95-22.35L88.95-22.35Q88.95-23.45 88.42-24.25 87.9-25.05 87.05-25.48 86.2-25.9 85.1-25.9ZM102.84-25.2L102.84-33 131.04-33 131.04-26.05Q126.94-22.15 124.67-18 122.39-13.85 121.47-9.38 120.54-4.9 120.54 0L120.54 0 110.54 0Q110.54-5.45 111.92-10.23 113.29-15 116.27-19.35 119.24-23.7 124.04-27.85L124.04-27.85 126.29-25.2 102.84-25.2Z" opacity="1" transform="matrix(1,0,0,1,0,0)" fill="#f6f6f6" class="wordmark-text-0" data-fill-palette-color="primary" id="text-0"></path></svg></g></svg></g></svg></g></svg></g></svg></g></svg></g></svg></g><g><path d="M245.816 0c68.262 0 123.6 55.338 123.6 123.6 0 68.262-55.338 123.6-123.6 123.6-54.216 0-100.279-34.907-116.941-83.473h3.101c16.538 46.919 61.262 80.545 113.84 80.545 66.646 0 120.672-54.027 120.672-120.672 0-66.646-54.027-120.672-120.672-120.672-52.578 0-97.302 33.626-113.84 80.545l-3.101 0c16.661-48.565 62.724-83.473 116.941-83.473z" fill="#f6f6f6" stroke="transparent" data-fill-palette-color="tertiary"></path></g></svg></g><defs></defs></svg><rect width="395.52" height="247.2" fill="none" stroke="none" visibility="hidden"></rect></g></svg></g></svg>